<?xml version="1.0" encoding="UTF-8" standalone="no"?>
<svg
   xmlns:dc="http://purl.org/dc/elements/1.1/"
   xmlns:cc="http://creativecommons.org/ns#"
   xmlns:rdf="http://www.w3.org/1999/02/22-rdf-syntax-ns#"
   xmlns:svg="http://www.w3.org/2000/svg"
   xmlns="http://www.w3.org/2000/svg"
   viewBox="0 0 294.63751 46.275002"
   height="46.275002"
   width="294.63751"
   xml:space="preserve"
   version="1.1"
   id="svg2"><metadata
     id="metadata8"><rdf:RDF><cc:Work
         rdf:about=""><dc:format>image/svg+xml</dc:format><dc:type
           rdf:resource="http://purl.org/dc/dcmitype/StillImage" /></cc:Work></rdf:RDF></metadata><defs
     id="defs6" /><g
     transform="matrix(1.25,0,0,-1.25,0,46.275)"
     id="g10"><g
       transform="scale(0.1,0.1)"
       id="g12"><path
         id="path14"
         style="fill:#04507c;fill-opacity:1;fill-rule:nonzero;stroke:none"
         d="m 0,0.488281 375.371,0 0,369.745999 -375.371,0 L 0,0.488281 Z" /><path
         id="path16"
         style="fill:#ffffff;fill-opacity:1;fill-rule:nonzero;stroke:none"
         d="m 61.5625,60.2344 251.535,0 0,251.523 -251.535,0 0,-251.523 z" /><path
         id="path18"
         style="fill:#e22739;fill-opacity:1;fill-rule:nonzero;stroke:none"
         d="M 313.098,311.758 77.9688,185.645 313.098,60.2344 l 0,251.5236" /><path
         id="path20"
         style="fill:#04507c;fill-opacity:1;fill-rule:nonzero;stroke:none"
         d="m 468.617,0 1888.52,0 0,370.234 -1888.52,0 0,-370.234 z" /><path
         id="path22"
         style="fill:#ffffff;fill-opacity:1;fill-rule:nonzero;stroke:none"
         d="m 535.133,61.8242 88.086,0 -1.985,104.6878 1.985,0 c 1.972,-10.274 9.902,-19.547 15.176,-29.16 l 42.89,-75.5278 104.91,0 -86.101,128.2028 77.851,121.602 -98.644,0 -43.543,-80.176 c -4.953,-8.945 -10.567,-17.89 -12.539,-28.16 l -1.985,0 1.985,108.336 -88.086,0 0,-249.8048" /><path
         id="path24"
         style="fill:#ffffff;fill-opacity:1;fill-rule:nonzero;stroke:none"
         d="m 814.246,61.8242 90.4023,0 0,249.805 -90.4023,0 0,-249.805 z" /><path
         id="path26"
         style="fill:#ffffff;fill-opacity:1;fill-rule:nonzero;stroke:none"
         d="m 943.18,230.461 49.824,2.32 0,-170.9568 90.386,0 0,170.9568 49.83,-2.32 0,81.168 -190.04,0 0,-81.168" /><path
         id="path28"
         style="fill:#ffffff;fill-opacity:1;fill-rule:nonzero;stroke:none"
         d="m 1339.79,305.32 c -19.16,6.641 -40.27,10.274 -60.72,10.274 -72.91,0 -129.99,-58.297 -129.99,-131.192 0,-71.23 55.42,-126.5622 126.36,-126.5622 16.18,0 49.82,2.9883 64.35,9.9415 l 2.63,93.4377 c -14.51,-14.254 -31.02,-23.203 -51.79,-23.203 -27.07,0 -50.49,21.211 -50.49,48.711 0,27.168 22.1,48.695 49.16,48.695 20.46,0 38.61,-11.582 53.12,-25.18 l -2.63,95.078" /><path
         id="path30"
         style="fill:#ffffff;fill-opacity:1;fill-rule:nonzero;stroke:none"
         d="m 1402.18,61.8242 87.09,0 0,86.7968 55.43,0 0,-86.7968 87.09,0 0,249.8048 -87.09,0 0,-84.16 -55.43,0 0,84.16 -87.09,0 0,-249.8048" /><path
         id="path32"
         style="fill:#ffffff;fill-opacity:1;fill-rule:nonzero;stroke:none"
         d="m 1692.63,61.8242 169.91,0 0,68.2418 -78.87,0 0,24.512 69.63,0 0,64.942 -69.63,0 0,23.847 76.21,0 0,68.262 -167.25,0 0,-249.8048" /><path
         id="path34"
         style="fill:#ffffff;fill-opacity:1;fill-rule:nonzero;stroke:none"
         d="m 1920.86,61.8242 166.29,0 0,80.1798 -75.88,0 0,169.625 -90.41,0 0,-249.8048" /><path
         id="path36"
         style="fill:#ffffff;fill-opacity:1;fill-rule:nonzero;stroke:none"
         d="m 2132.84,61.8242 166.28,0 0,80.1798 -75.88,0 0,169.625 -90.4,0 0,-249.8048" /></g></g></svg>